<?xml version="1.0" encoding="UTF-8"?>
<svg id="Layer_2" data-name="Layer 2" xmlns="http://www.w3.org/2000/svg" viewBox="0 0 512.09 451.81">
  <defs>
    <style>
      .cls-1 {
        fill: #7bafd4;
      }

      .cls-1, .cls-2, .cls-3, .cls-4 {
        stroke-width: 0px;
      }

      .cls-2 {
        fill: #4f758b;
      }

      .cls-3 {
        fill: #adadad;
      }

      .cls-4 {
        fill: #13294b;
      }
    </style>
  </defs>
  <g id="Layer_1-2" data-name="Layer 1">
    <g>
      <path class="cls-1" d="M168.28,176.26c0,1.36.04,2.73.12,4.09.12,2.03.32,4.04.6,6.05,2.45,17.78,12.56,32.92,28.54,41.34,1.72.9,3.48,1.71,5.26,2.42,12.79,4.93,29.25,6.07,49.58,1.44.02,0,.04,0,.05-.01,1.45-.33,2.91-.69,4.4-1.08.08-.02.15-.04.22-.06,1.5-.4,3.02-.82,4.57-1.28,9.76-2.9,19.13-6.77,28.23-11.26,2.65-1.3,5.27-2.66,7.87-4.06,9.19-4.95,18.11-10.43,26.88-16.04.47-.3.94-.61,1.41-.93.26-.19.53-.37.79-.56,1.97-1.4,3.96-2.84,5.92-4.32-11.83,3.53-22.69,5.87-32.58,7.2-9.13,1.24-17.44,1.6-24.96,1.24-65.88-3.2-70.29-62.54-25.06-88.29,1-.57,2.02-1.12,3.06-1.66-5.43-1.4-11.12-2.14-16.99-2.14-37.51,0-67.92,30.41-67.92,67.91Z"/>
      <path class="cls-2" d="M378.2,420.99c-2.72-1.36-5.84-2.04-9.34-2.04h-14.37v32.86h14.37c3.5,0,6.62-.68,9.34-2.04,2.72-1.36,4.84-3.29,6.34-5.77,1.5-2.49,2.25-5.36,2.25-8.62s-.75-6.13-2.25-8.61c-1.5-2.49-3.62-4.41-6.34-5.78ZM379.16,441.32c-.99,1.71-2.39,3.02-4.23,3.94-1.83.92-3.95,1.38-6.36,1.38h-7.98v-22.54h7.98c2.41,0,4.53.46,6.36,1.39s3.24,2.24,4.23,3.94,1.48,3.69,1.48,5.94-.49,4.23-1.48,5.94Z"/>
      <path class="cls-2" d="M412.33,418.95l-14.79,32.86h6.29l3.24-7.61h16.43l3.29,7.61h6.38l-14.83-32.86h-6.01ZM409.14,439.42l6.15-14.37,6.2,14.37h-12.35Z"/>
      <polygon class="cls-2" points="440.87 424.11 451.77 424.11 451.77 451.81 457.87 451.81 457.87 424.11 468.76 424.11 468.76 418.95 440.87 418.95 440.87 424.11"/>
      <path class="cls-2" d="M497.26,418.95h-6.01l-14.79,32.86h6.29l3.24-7.61h16.43l3.29,7.61h6.38l-14.83-32.86ZM488.06,439.42l6.15-14.37,6.2,14.37h-12.35Z"/>
      <g>
        <path class="cls-4" d="M47.82,336.96c8.11,0,14.65,3.51,19.97,9.93l15.25-13.8c-8.23-10.29-20.82-15.98-36.44-15.98-26.88,0-46.61,18.28-46.61,44.07s19.73,44.07,46.61,44.07c15.62,0,28.21-5.69,36.44-15.98l-15.25-13.8c-5.33,6.42-11.86,9.93-19.97,9.93-13.92,0-23.61-9.69-23.61-24.21s9.68-24.21,23.61-24.21Z"/>
        <path class="cls-4" d="M123.48,336.84c-21.43,0-37.05,14.04-37.05,33.78s15.62,34.02,37.05,34.02,37.04-14.16,37.04-34.02-15.38-33.78-37.04-33.78ZM123.48,386.36c-7.75,0-13.8-5.69-13.8-15.74s6.05-15.5,13.8-15.5,13.8,5.57,13.8,15.5-5.93,15.74-13.8,15.74Z"/>
        <path class="cls-4" d="M211.01,318.81h-38.74v84.74h23.97v-22.15h14.77c23.12,0,37.65-11.98,37.65-31.23s-14.53-31.36-37.65-31.36ZM209.56,362.51h-13.32v-24.82h13.32c9.93,0,14.89,4.6,14.89,12.47s-4.96,12.35-14.89,12.35Z"/>
        <path class="cls-4" d="M292,336.84c-21.43,0-37.05,14.04-37.05,33.78s15.62,34.02,37.05,34.02,37.04-14.16,37.04-34.02-15.38-33.78-37.04-33.78ZM292,386.36c-7.75,0-13.8-5.69-13.8-15.74s6.05-15.5,13.8-15.5,13.8,5.57,13.8,15.5-5.93,15.74-13.8,15.74Z"/>
        <rect class="cls-4" x="339.7" y="337.93" width="23" height="65.62"/>
        <path class="cls-4" d="M351.2,306.21c-8.47,0-14.04,5.33-14.04,12.23s5.57,12.23,14.04,12.23,14.04-5.33,14.04-12.59-5.57-11.86-14.04-11.86Z"/>
        <path class="cls-4" d="M420.33,336.84c-8.23,0-15.62,2.78-20.82,8.23v-7.14h-21.91v65.62h23v-31.72c0-10.9,5.69-15.5,13.08-15.5,6.66,0,10.77,4,10.77,13.44v33.78h23v-37.53c0-20.34-11.74-29.18-27.12-29.18Z"/>
        <path class="cls-4" d="M501.44,384.79c-1.94,1.33-4.48,2.06-7.02,2.06-4.12,0-6.9-2.66-6.9-7.51v-21.79h15.01v-17.19h-15.01v-17.07h-23v17.07h-9.56v17.19h9.56v22.03c0,16.83,9.81,25.06,26.63,25.06,6.05,0,11.98-1.21,15.98-3.75l-5.69-16.1Z"/>
        <path class="cls-4" d="M453.81,162.51c-2.38-.81-4.78-1.55-7.21-2.22-4.41-1.21-8.9-2.17-13.43-2.86-19.94-3.04-40.51-.52-59.04,7.48-14.53,6.27-26.63,16.53-39.32,25.84,0,0-.01,0-.02.01-2.26,1.65-4.54,3.28-6.86,4.85-.41.27-.82.55-1.23.82-.23.15-.46.31-.69.45-.47.32-.94.63-1.41.93-8.77,5.61-17.69,11.09-26.88,16.04-2.6,1.4-5.22,2.76-7.87,4.06-9.1,4.49-18.47,8.36-28.23,11.26-1.34.4-2.69.78-4.05,1.14-.17.05-.34.09-.52.14-.08.02-.15.04-.22.06-.21.05-.42.11-.63.17-.49.13-.98.26-1.47.37-.76.19-1.53.37-2.3.55-.02,0-.04,0-.05.01-15.24,3.52-31.62,4.63-46.4-.29-.5-.15-.99-.33-1.48-.5-.57-.21-1.14-.42-1.7-.65-1.78-.71-3.53-1.52-5.26-2.42-15.98-8.42-26.09-23.56-28.54-41.34-.28-2.01-.48-4.02-.6-6.05-.08-1.36-.12-2.73-.12-4.09,0-37.5,30.41-67.91,67.92-67.91,5.87,0,11.56.74,16.99,2.14,0,0,0,0,0,0,17.93,4.62,32.99,16.38,41.98,32.07.61.92,1.18,1.85,1.73,2.79,0-.01.01-.02.01-.03.57-1.68.76-3.47.66-5.24-2.12-39-32.02-70.67-70.4-75.8v34.97c0,3.13-2.54,5.67-5.66,5.67h-46.14c-3.12,0-5.66-2.54-5.66-5.67v-22.33c-4.02,2.12-7.88,4.49-11.58,7.09,0,0,0,0,0,0,0,0-.01,0-.01,0-28.23,19.77-46.69,52.55-46.69,89.63,0,55.21,40.9,100.87,94.06,108.3.14.03.27.04.41.06,5.01.65,10.16.99,15.45,1.01.28,0,.56-.01.85-.01,4.41-.01,8.92-.25,13.51-.73,31.92-3.33,68.03-18.23,106.1-49.31,18.3-14.93,33.93-32.94,53.39-46.45,10.83-7.52,22.3-13.81,35.13-17.17,7.53-1.98,15.33-2.74,23.09-3.49,1.85-.19,2.15-2.75.4-3.35Z"/>
      </g>
      <rect class="cls-3" x="228.42" y="12.65" width="26.9" height="26.9" rx="4.01" ry="4.01"/>
      <rect class="cls-1" x="154.61" width="36.98" height="36.98" rx="5.51" ry="5.51"/>
      <rect class="cls-4" x="179.85" y="57.66" width="37.6" height="37.6" rx="5.6" ry="5.6"/>
    </g>
  </g>
</svg>